<svg xmlns="http://www.w3.org/2000/svg" width="960" height="540" viewBox="0 0 960 540">
  <rect width="960" height="540" fill="#f8fafc"/>
  <rect x="0" y="0" width="240" height="540" fill="#1e1b4b"/>
  <text x="20" y="36" fill="#fff" font-family="system-ui" font-size="16" font-weight="700">AI Toolkit</text>
  <text x="20" y="56" fill="#a5b4fc" font-family="system-ui" font-size="11">Unified AI services</text>
  <rect x="16" y="80" width="208" height="32" rx="8" fill="#22c55e"/>
  <text x="28" y="100" fill="#fff" font-family="system-ui" font-size="11">Backend ready</text>
  <rect x="16" y="120" width="208" height="48" rx="8" fill="#312e81"/>
  <text x="28" y="142" fill="#c7d2fe" font-family="system-ui" font-size="10">Quick API test</text>
  <text x="28" y="158" fill="#fff" font-family="system-ui" font-size="11">Run sentiment demo</text>
  <rect x="260" y="20" width="680" height="64" fill="url(#g)" rx="12"/>
  <defs><linearGradient id="g" x1="0" y1="0" x2="1" y2="0"><stop offset="0%" stop-color="#667eea"/><stop offset="100%" stop-color="#764ba2"/></linearGradient></defs>
  <text x="280" y="58" fill="#fff" font-family="system-ui" font-size="20" font-weight="700">9 AI services ¯ one gateway</text>
  <rect x="260" y="100" width="150" height="56" rx="8" fill="#fff" stroke="#e2e8f0"/>
  <text x="276" y="124" fill="#64748b" font-family="system-ui" font-size="10">API status</text>
  <text x="276" y="144" fill="#16a34a" font-family="system-ui" font-size="18" font-weight="700">Online</text>
  <rect x="420" y="100" width="150" height="56" rx="8" fill="#fff" stroke="#e2e8f0"/>
  <text x="436" y="124" fill="#64748b" font-family="system-ui" font-size="10">Models</text>
  <text x="436" y="144" fill="#0f172a" font-family="system-ui" font-size="18" font-weight="700">9</text>
  <rect x="260" y="180" width="680" height="320" rx="12" fill="#fff" stroke="#e2e8f0"/>
  <text x="280" y="210" fill="#64748b" font-family="system-ui" font-size="11">SENTIMENT RESULT</text>
  <text x="280" y="250" fill="#16a34a" font-family="system-ui" font-size="28" font-weight="700">POSITIVE 94%</text>
  <rect x="280" y="280" width="400" height="16" rx="4" fill="#22c55e"/>
  <rect x="280" y="310" width="120" height="16" rx="4" fill="#ef4444"/>
</svg>
